<?xml version="1.0" encoding="UTF-8"?>
<!DOCTYPE svg PUBLIC "-//W3C//DTD SVG 1.1//EN" "http://www.w3.org/Graphics/SVG/1.1/DTD/svg11.dtd">
<!-- Creator: CorelDRAW X7 -->
<svg xmlns="http://www.w3.org/2000/svg" xml:space="preserve" width="70.4662mm" height="13.9849mm" version="1.1" style="shape-rendering:geometricPrecision; text-rendering:geometricPrecision; image-rendering:optimizeQuality; fill-rule:evenodd; clip-rule:evenodd"
viewBox="0 0 4606 914"
 xmlns:xlink="http://www.w3.org/1999/xlink">
 <defs>
  <style type="text/css">
   <![CDATA[
    .fil0 {fill:#FEFEFE}
    .fil7 {fill:#FEFEFE;fill-rule:nonzero}
    .fil8 {fill:#FEFEFE;fill-rule:nonzero}
    .fil1 {fill:#373435;fill-rule:nonzero}
    .fil4 {fill:#92B9DD;fill-rule:nonzero}
    .fil3 {fill:#9BCC7D;fill-rule:nonzero}
    .fil5 {fill:#D4B9E6;fill-rule:nonzero}
    .fil6 {fill:#F8C8DC;fill-rule:nonzero}
    .fil2 {fill:#FECE7C;fill-rule:nonzero}
   ]]>
  </style>
    <clipPath id="id0">
     <path d="M0 0l4606 0 0 914 -4606 0 0 -914z"/>
    </clipPath>
 </defs>
 <g id="Layer_x0020_1">
  <metadata id="CorelCorpID_0Corel-Layer"/>
  <g id="_2204824539792">
   <g style="clip-path:url(#id0)">
    <image x="0" y="0" width="4606" height="914" xlink:href="02 logo cuddle_Images\02 logo cuddle_ImgID1.png"/>
   </g>
  </g>
  <path class="fil0" d="M1626 310c-4,-18 -6,-37 -6,-56 0,-96 48,-177 152,-177l6 0c44,0 86,19 122,44 16,10 30,22 43,36 7,-17 20,-30 37,-38 4,-3 9,-5 14,-7 31,-24 68,-36 108,-36 29,0 57,7 82,20 23,12 42,27 57,47 7,6 14,13 21,20 21,23 34,53 41,83 2,-3 3,-5 4,-8 20,-38 49,-71 85,-95 2,-2 5,-4 7,-5 29,-18 62,-30 95,-38 1,-1 2,-1 3,-1l76 -16c17,-4 35,-6 52,-6 15,0 37,6 54,10 2,0 4,0 6,1 40,8 75,26 104,54 6,-9 13,-17 21,-25 29,-27 65,-41 104,-41 8,0 16,0 23,1 42,4 77,28 103,59 14,11 26,25 37,39 12,15 19,34 25,52 0,1 0,1 0,2 2,5 4,11 5,16 3,-4 6,-9 10,-13 1,-1 1,-2 2,-3 5,-7 12,-14 16,-22 42,-74 107,-119 192,-129 3,-1 6,-1 9,-1l10 0c28,0 59,0 86,2 33,4 66,12 96,27l5 1c23,6 44,18 63,33 31,-34 76,-53 128,-53l7 0c4,0 7,0 11,1 24,3 46,13 65,27 8,5 15,10 22,16 8,-9 17,-17 27,-24 16,-12 33,-21 52,-26 1,0 2,0 4,-1 13,-3 27,-4 41,-4 33,0 64,8 92,24 11,6 20,14 27,24 1,2 1,3 2,4 6,4 11,7 15,12 5,-5 10,-9 16,-12 29,-17 60,-28 92,-36 26,-6 53,-10 79,-14 10,-1 20,-1 29,1 4,0 7,0 11,0 35,2 68,9 100,24 17,9 31,22 42,36 22,16 38,39 51,62 5,7 7,14 9,21 6,22 12,48 12,70l0 7c0,5 -1,10 -2,15 -4,24 -16,45 -31,64 -9,11 -19,22 -31,31 7,9 14,17 20,25 1,3 3,5 4,7 23,37 38,78 38,122 0,25 -4,50 -10,74 -1,6 -3,11 -6,17 -2,4 -3,7 -5,11 -1,1 -1,3 -2,4l-2 3c0,1 0,1 0,1 -14,33 -36,62 -63,86 -24,19 -53,36 -80,50 -33,16 -70,23 -106,26 -12,2 -25,2 -37,2 -14,0 -29,-1 -43,-2 -45,-6 -85,-24 -117,-55 -12,8 -24,16 -36,22 -19,11 -42,17 -64,21 -29,5 -67,13 -97,13 -26,0 -58,-6 -84,-12 -5,-1 -10,-2 -14,-4 -2,-1 -5,-2 -7,-2 -10,-3 -20,-5 -30,-8 -8,-3 -15,-7 -22,-12 -21,-10 -40,-23 -55,-40 -42,31 -91,53 -141,68 -27,8 -55,11 -84,11 -34,0 -68,-5 -101,-15 -16,-4 -31,-9 -46,-15 -21,-8 -40,-17 -58,-29 -11,10 -24,20 -37,27 -37,19 -77,31 -119,31l-9 0c-57,0 -112,-11 -163,-35 -8,-4 -14,-9 -21,-15 -2,-2 -4,-4 -6,-6 -2,-2 -4,-3 -5,-5l-3 -2c0,-1 -1,-1 -1,-2 -15,11 -31,20 -48,27 -3,1 -5,2 -7,3 -50,17 -106,33 -160,35 -1,0 -2,0 -3,0 -8,0 -16,-1 -24,-3 -3,0 -5,-1 -8,-1 0,0 -1,0 -1,0l-27 -3c0,0 -1,0 -1,0 -17,-1 -35,-4 -52,-8 0,0 -1,0 -1,-1l-16 -4c-8,-2 -17,-4 -25,-6 -6,-2 -12,-4 -17,-7 -11,-5 -21,-11 -31,-16 -10,-5 -20,-11 -29,-17 -54,50 -134,66 -211,66 -17,0 -33,-1 -50,-2 -62,-4 -124,-22 -166,-68 -1,1 -3,2 -5,3 -72,46 -151,69 -237,69 -12,0 -24,0 -36,-2 -36,-4 -73,-12 -106,-26 -23,-11 -44,-24 -64,-41 0,0 0,0 0,0 -72,46 -151,69 -236,69 -12,0 -25,0 -37,-2 -35,-4 -73,-12 -106,-26 -25,-12 -49,-28 -70,-46l-15 11c-47,38 -102,62 -163,62l-3 0c-20,0 -41,-3 -61,-5 -65,-8 -140,-24 -190,-69 -6,-5 -11,-10 -16,-15 -12,12 -24,22 -38,31 -59,41 -127,58 -199,58 -68,0 -136,-15 -191,-56 -1,-1 -3,-2 -4,-3 -6,-5 -12,-11 -17,-17 0,0 -1,-1 -1,-1l-5 -7c-23,-15 -40,-40 -54,-62 -13,-20 -26,-42 -34,-64 -9,-26 -13,-53 -13,-81l0 -44c0,-20 4,-40 8,-58l5 -19c0,-2 1,-5 1,-8 3,-30 7,-64 15,-94 12,-41 30,-79 57,-111 1,-1 2,-3 3,-4 3,-6 6,-11 10,-16 2,-4 5,-6 8,-9 20,-20 43,-39 67,-55 53,-35 114,-51 177,-51l14 0c24,0 52,8 75,14 5,2 9,3 14,6l14 6c18,8 35,17 51,29 36,-36 82,-55 133,-55 52,0 98,19 129,58 5,3 9,7 13,11 2,-2 4,-3 7,-4 2,-1 4,-2 6,-3 27,-14 56,-20 86,-20 41,0 80,11 115,33 2,2 4,3 6,5 17,11 32,24 45,40 17,14 31,30 42,49 3,-92 51,-169 152,-169l6 0c45,0 86,19 123,44 20,14 39,31 56,50 20,19 40,41 54,65 1,1 2,2 2,4 12,21 25,43 35,65 1,3 2,5 3,7 6,0 12,-1 18,-2z"/>
  <path class="fil1" d="M607 392c10,-14 15,-30 15,-48l0 -3c0,-54 -18,-93 -53,-117 -13,-20 -32,-34 -56,-42l-18 -9c-26,-7 -44,-11 -54,-11l-14 0c-52,0 -96,12 -133,38 -21,13 -39,28 -56,45 -1,1 -3,4 -5,7l1 0c-1,1 -4,5 -8,13 -21,22 -36,50 -45,85 -4,16 -9,43 -13,82 0,3 -1,8 -2,15l-5 21c-4,17 -6,30 -6,40l0 45c0,20 3,38 8,55 4,11 13,26 26,47 14,23 25,36 32,40l-1 -1c3,2 6,5 10,7l13 15c2,3 4,5 6,7l-1 -1c37,29 86,43 147,43 63,0 115,-16 158,-47l-1 1c16,-10 30,-25 43,-45 12,-20 18,-39 18,-57 0,-11 -2,-23 -6,-37l0 0c-1,0 -1,-4 -2,-10 -7,-18 -20,-35 -41,-52 -3,-4 -9,-10 -16,-17 -15,-15 -30,-22 -44,-22l-4 0c-13,0 -29,2 -47,6 -24,4 -40,7 -48,8l-4 0c-10,0 -17,-1 -23,-2 -3,-6 -4,-11 -4,-16 0,-4 1,-8 3,-11 2,-6 8,-13 19,-22 10,-8 19,-13 25,-14l4 0c7,0 16,1 29,3l25 4c4,1 7,2 10,3l3 0c2,0 6,1 11,1l8 0c19,0 42,-7 68,-21 12,-7 21,-15 29,-26l-1 0z"/>
  <path class="fil2" d="M546 380c-25,13 -46,20 -63,20 -4,0 -11,0 -21,-1 -5,-1 -16,-4 -33,-7 -16,-3 -28,-4 -36,-3 -9,1 -19,6 -31,15 -12,10 -19,19 -23,27 -5,11 -5,22 0,33 7,16 15,27 23,32 10,6 25,9 43,8 10,0 26,-3 50,-8 20,-5 37,-7 49,-6 13,1 25,7 37,19 12,12 20,23 25,36 0,4 2,11 5,22 2,9 3,17 3,22 0,17 -6,35 -17,52 -10,16 -23,29 -39,41 -41,29 -92,44 -151,44 -58,0 -105,-13 -140,-41 -8,-6 -19,-19 -30,-37 -12,-18 -20,-32 -23,-43 -6,-18 -8,-36 -8,-53l0 -44c0,-10 2,-23 5,-37 2,-7 4,-19 8,-38 2,-14 6,-41 13,-80 5,-29 20,-56 43,-81 3,-6 7,-13 12,-21 17,-17 35,-31 53,-42 40,-26 87,-38 141,-36 10,0 27,4 48,10l9 4c3,2 7,3 11,5 49,18 74,59 74,121 0,32 -12,54 -37,67z"/>
  <path class="fil1" d="M1118 309c-7,-20 -20,-37 -39,-50 -9,-13 -21,-24 -37,-34l0 0c-23,-14 -47,-22 -73,-22 -21,0 -39,5 -55,14l0 0c-7,4 -17,16 -29,35 -3,3 -5,5 -7,8 -1,8 -1,18 -1,28 0,7 1,20 2,38 1,8 5,14 12,19l0 4c0,2 0,5 1,9 1,4 1,7 1,9l0 65c-4,28 -11,53 -21,72l0 0c-9,17 -15,26 -18,28l1 0c-4,1 -9,3 -15,4l2 -1c-2,1 -3,1 -4,1l-4 0c-2,0 -3,0 -4,-1 -6,-1 -11,-4 -17,-6 -2,-13 -4,-26 -4,-40l0 -7c0,-9 2,-24 4,-46 2,-12 4,-24 6,-37l0 1c3,-12 7,-30 13,-54l-1 1c6,-24 9,-45 9,-62 0,-12 -1,-24 -5,-36 0,0 -1,-5 -2,-14l0 -4c-9,-15 -19,-26 -31,-33 -15,-24 -40,-36 -74,-36 -33,0 -61,12 -83,37 -17,19 -28,38 -33,59l0 -1c-5,18 -8,39 -9,63 -1,14 -4,45 -12,93 -6,41 -9,70 -9,88 0,32 3,58 10,75l0 -1c1,3 2,9 3,16 9,20 31,47 65,81 17,17 30,30 40,38 28,25 77,42 147,50 25,3 43,5 52,5l3 0c39,0 77,-15 114,-45l25 -20c6,-5 10,-8 11,-9l-1 1c56,-64 84,-148 84,-253 0,-8 0,-18 0,-28 -2,-41 -7,-75 -17,-102z"/>
  <path class="fil3" d="M1096 383c0,10 1,19 1,28 0,103 -28,184 -82,246 -2,2 -13,11 -33,27 -33,26 -69,40 -107,42 -8,0 -26,-1 -55,-5 -66,-7 -113,-23 -141,-47 -37,-31 -62,-60 -73,-85l-3 -16c-7,-17 -10,-41 -10,-72 0,-17 3,-46 9,-87 7,-45 11,-77 12,-93 1,-25 4,-45 8,-61 8,-25 21,-46 40,-62 19,-17 41,-25 66,-25 17,0 29,2 39,6 10,5 20,14 27,27l8 52c0,17 -3,36 -8,56l-15 65c-4,22 -7,44 -8,66 -1,29 1,53 7,71 4,10 20,20 48,30 4,1 10,2 18,1 7,-2 12,-3 17,-6 10,-8 20,-25 29,-50 7,-21 12,-40 14,-58l0 -62c0,5 0,-1 -1,-18 -1,-10 -1,-15 -2,-17 -6,-2 -10,-6 -11,-11 -3,-24 -3,-44 -1,-61 3,-3 6,-8 10,-15 7,-11 13,-19 20,-22 16,-8 32,-13 50,-13 23,0 45,7 66,19 22,14 37,31 44,52 10,27 15,60 17,98z"/>
  <path class="fil1" d="M1538 635c12,-36 18,-78 18,-127 0,-57 -7,-112 -22,-164 -7,-14 -17,-34 -32,-60l1 1c-10,-16 -25,-34 -46,-53 -13,-16 -28,-30 -44,-40 -29,-20 -55,-30 -78,-30l-6 0c-49,0 -73,33 -73,98 0,18 2,35 6,52l0 -1c1,4 4,13 9,27l0 -1 1 5c0,0 1,2 2,5 4,10 6,17 6,21 0,3 -1,4 -3,4 -15,10 -23,15 -25,16 -24,3 -60,7 -108,11 -15,4 -30,15 -45,35 -11,14 -19,28 -25,42l-8 27c-1,4 -3,11 -5,21l0 0c-4,18 -7,33 -7,45l0 7c0,8 2,20 6,37 4,18 8,30 12,35 13,18 25,32 39,42 23,25 47,43 71,54 20,9 48,16 84,21 6,0 15,1 27,1 70,0 135,-19 195,-57l7 -9c7,-9 16,-20 26,-35 7,-9 12,-18 17,-30l0 0z"/>
  <path class="fil4" d="M1500 604c-4,9 -15,27 -35,54 -3,3 -7,8 -12,15 -57,36 -120,54 -188,54 -12,0 -20,0 -25,-1 -35,-5 -62,-11 -81,-20 -29,-12 -55,-33 -78,-65 -5,-6 -10,-27 -15,-61 -2,-12 0,-30 6,-53 2,-8 6,-23 11,-45 6,-14 15,-28 25,-42 14,-17 27,-27 39,-30 24,-1 60,-5 107,-11 3,-1 13,-6 29,-17 5,-3 8,-7 8,-14 0,-5 -3,-14 -8,-27 -11,-31 -16,-58 -16,-81 0,-61 22,-90 68,-87 25,1 50,11 75,29 24,17 42,37 55,61 4,6 14,25 30,57 15,51 23,104 23,160 0,48 -6,90 -18,124z"/>
  <path class="fil1" d="M1348 557c6,-8 9,-19 9,-34 0,-16 -4,-29 -12,-39 -13,-18 -31,-27 -53,-27 -4,0 -8,0 -10,2 -21,5 -33,10 -36,14 -8,11 -11,23 -11,35 0,15 5,33 17,53 14,8 29,13 43,13 4,0 8,-1 12,-1 6,0 13,-2 22,-5 10,-4 16,-7 19,-11z"/>
  <path class="fil1" d="M1981 635c12,-36 18,-78 18,-127 0,-57 -8,-112 -23,-164 -6,-14 -17,-34 -31,-60l0 1c-9,-16 -24,-34 -45,-53 -13,-16 -28,-30 -44,-40 -29,-20 -55,-30 -78,-30l-6 0c-49,0 -74,33 -74,98 0,18 3,35 7,52l-1 -1c1,4 4,13 9,27l0 -1 2 5c0,0 1,2 2,5 3,10 5,17 5,21 0,3 -1,4 -2,4 -16,10 -24,15 -25,16 -24,3 -60,7 -108,11 -15,4 -30,15 -45,35 -11,14 -19,28 -26,42l-7 27c-1,4 -3,11 -5,21l0 0c-5,18 -7,33 -7,45l0 7c0,8 2,20 6,37 4,18 8,30 12,35 12,18 25,32 38,42 24,25 47,43 72,54 20,9 48,16 84,21 5,0 14,1 26,1 71,0 136,-19 195,-57l8 -9c7,-9 15,-20 26,-35 6,-9 12,-18 17,-30l0 0z"/>
  <path class="fil5" d="M1942 604c-3,9 -14,27 -34,54 -3,3 -7,8 -12,15 -57,36 -120,54 -188,54 -12,0 -20,0 -26,-1 -34,-5 -61,-11 -80,-20 -30,-12 -56,-33 -78,-65 -5,-6 -10,-27 -15,-61 -2,-12 0,-30 6,-53 2,-8 5,-23 11,-45 6,-14 14,-28 25,-42 13,-17 26,-27 38,-30 25,-1 61,-5 108,-11 3,-1 12,-6 29,-17 5,-3 7,-7 7,-14 0,-5 -2,-14 -7,-27 -11,-31 -17,-58 -17,-81 0,-61 23,-90 69,-87 25,1 50,11 75,29 23,17 42,37 55,61 3,6 13,25 30,57 15,51 22,104 22,160 0,48 -6,90 -18,124z"/>
  <path class="fil1" d="M1790 557c7,-8 10,-19 10,-34 0,-16 -4,-29 -12,-39 -13,-18 -31,-27 -53,-27 -4,0 -8,0 -11,2 -20,5 -32,10 -36,14 -7,11 -11,23 -11,35 0,15 6,33 18,53 14,8 28,13 43,13 4,0 8,-1 12,-1 5,0 13,-2 22,-5 9,-4 15,-7 18,-11z"/>
  <path class="fil1" d="M2385 566c-6,-8 -12,-15 -19,-21l0 0c-9,-9 -18,-18 -27,-27 -13,-12 -23,-20 -30,-23 -16,-7 -31,-12 -45,-14 -13,-1 -24,-1 -34,-1l0 -1c-3,-19 -5,-33 -5,-42l0 -4c7,-47 11,-81 11,-101 0,-9 -1,-16 -2,-23l0 1c-5,-42 -15,-71 -30,-88 -7,-8 -14,-14 -21,-18 -7,-13 -19,-24 -34,-32 -15,-7 -31,-11 -47,-11 -29,0 -52,10 -71,30 -1,0 -2,0 -3,0 -3,0 -7,1 -13,4 -5,19 -8,29 -9,31l-8 111c0,2 0,6 0,10l0 1c-3,21 -8,51 -14,92 -5,33 -7,64 -7,93l0 7c0,35 3,69 10,102 2,6 4,17 8,31 1,3 2,5 3,5l-2 -1c9,13 18,23 30,31 21,32 62,50 123,54 16,1 31,1 44,1 104,0 167,-30 189,-92 8,-20 11,-40 11,-58 0,-13 -2,-28 -6,-43l-2 -4z"/>
  <path class="fil6" d="M2348 545c5,14 7,28 7,40 0,17 -4,35 -11,55 -21,56 -80,85 -179,85 -13,0 -28,-1 -43,-2 -58,-4 -97,-21 -116,-52 0,-3 -3,-13 -8,-32 -8,-31 -11,-67 -10,-106 0,-23 3,-53 8,-91l9 -68c3,-17 5,-42 7,-75l4 -68c2,-2 5,-12 9,-28 1,-1 2,-1 3,-1 2,0 4,1 6,3 17,-22 40,-33 68,-33 26,0 48,10 66,30 13,14 22,41 27,81 1,9 2,16 2,21 0,9 -3,37 -8,83l-3 18c-1,9 1,25 5,48 0,3 0,8 1,14 6,9 9,13 10,15 4,5 10,8 16,9 7,-1 13,-1 19,-1 3,0 12,1 25,2 12,2 26,6 42,13 6,3 15,9 27,21 7,7 13,13 17,19z"/>
  <path class="fil1" d="M2547 383l-1 2c0,-1 0,-2 1,-2z"/>
  <path class="fil1" d="M2816 529c-12,-15 -25,-26 -39,-34 -3,-2 -10,-5 -21,-10 12,-8 24,-19 34,-33 11,-16 17,-30 18,-44 1,-10 2,-20 2,-32 0,-31 -4,-60 -13,-86 -11,-33 -28,-56 -50,-69 -18,-26 -44,-43 -79,-50l1 0c-27,-6 -41,-9 -44,-9 -16,0 -28,1 -36,4l1 0 -77 16c-29,7 -54,17 -73,29l1 0c-27,17 -49,40 -64,70 -13,23 -20,39 -24,47 -9,19 -16,36 -21,49 -10,30 -16,58 -16,85 0,5 1,13 2,23 1,10 1,17 1,22l0 5c18,76 48,131 89,163 16,20 36,36 60,48 6,3 17,9 32,17 4,1 13,3 27,6l17 5c9,3 22,5 38,6l29 3c6,0 9,1 10,1 -3,0 -1,0 5,1 6,1 9,2 10,2 36,-1 81,-12 137,-31 60,-27 90,-66 90,-118 0,-34 -16,-63 -47,-86z"/>
  <path class="fil2" d="M2824 587c0,47 -27,82 -79,107 -58,19 -103,30 -136,31 -2,0 -4,0 -7,-1 -4,-1 -6,-2 -7,-2l-62 -6c-12,-3 -31,-8 -56,-14 -8,-5 -19,-10 -32,-17 -55,-26 -93,-84 -115,-173 0,-9 -1,-22 -2,-39 -2,-28 3,-59 15,-93 6,-19 21,-50 44,-94 25,-50 69,-81 131,-94 13,-2 38,-7 74,-15 12,-3 23,-4 33,-4 3,1 17,4 41,9 37,8 65,29 83,62 15,28 22,63 22,104 0,8 0,18 -1,31 -1,8 -6,20 -14,34 -13,22 -33,38 -59,49 -18,7 -65,16 -141,29 -3,0 -6,4 -9,9 0,3 1,5 2,8 14,7 29,10 45,10 14,0 34,-4 61,-14 27,-10 47,-14 61,-14 22,0 41,5 59,16 32,20 49,47 49,81z"/>
  <path class="fil1" d="M2597 356c-1,-13 -9,-23 -24,-30 -9,-5 -22,-10 -36,-15 -1,1 -3,3 -7,6 -3,3 -5,5 -7,6 -4,7 -10,17 -15,30 -1,4 -1,6 -1,8 0,10 4,20 13,28 8,9 18,13 28,13 4,0 8,0 11,-2 7,-5 19,-15 36,-30 2,-1 3,-6 2,-14z"/>
  <path class="fil1" d="M3206 632c1,-4 2,-11 2,-20 0,-47 -15,-81 -46,-101 -13,-21 -30,-32 -49,-35 3,-12 4,-22 4,-31 0,-26 -11,-44 -32,-53 -9,-20 -27,-32 -52,-34 -3,0 -5,0 -6,-1 0,-1 0,-3 1,-5 4,-12 6,-32 6,-59 0,-10 -2,-21 -6,-34l0 0c-4,-14 -8,-24 -13,-30 -11,-15 -21,-24 -29,-30 -19,-23 -37,-36 -56,-38 -4,0 -9,0 -16,0 -19,0 -36,6 -50,20 -14,13 -24,30 -28,50l0 -3c-2,4 -5,9 -8,15 -2,16 -4,31 -4,46 0,14 2,26 4,36l0 -1c3,14 4,25 4,33 0,6 0,12 -2,17 -37,3 -63,20 -77,49l0 0c-3,5 -5,9 -8,11 -1,7 -1,13 -1,20 0,41 12,67 36,76 10,20 25,30 45,32 7,1 11,1 13,2l0 5c-1,1 -1,3 -1,5 -1,8 -1,13 -1,17 0,44 15,78 45,103l4 4c1,1 3,2 5,3 6,8 12,15 19,20l4 5c4,4 8,7 12,10 38,19 80,28 128,28l9 0c26,0 54,-8 83,-23 7,-3 16,-11 28,-23l0 0c12,-12 20,-26 25,-41 1,-5 2,-12 5,-19 2,-10 3,-18 3,-26z"/>
  <path class="fil3" d="M3168 602c-1,7 -2,16 -4,26 -2,6 -5,17 -10,33 -1,5 -7,12 -17,23 -11,10 -19,17 -25,20 -21,11 -45,18 -71,21 -17,2 -38,0 -63,-4 -31,-5 -56,-12 -75,-22 -5,-5 -10,-10 -15,-14 -27,-22 -41,-54 -41,-94 0,-4 1,-10 1,-17 1,-8 1,-13 1,-18 0,-14 -5,-23 -16,-27 -1,-1 -13,-3 -34,-6 -24,-3 -39,-18 -43,-46 -2,-15 -2,-28 0,-38 2,-3 4,-6 7,-11 14,-28 39,-42 75,-43 4,-8 5,-18 5,-28 0,-8 -1,-19 -4,-34 -2,-15 -3,-27 -3,-34 0,-13 1,-27 3,-42 1,-2 2,-4 3,-7l4 -7c2,-14 9,-27 19,-39 10,-12 22,-19 35,-21 13,-2 28,-1 42,3 9,2 21,13 36,32 4,5 8,14 12,26 3,13 5,23 5,31 0,26 -2,45 -5,57 -3,12 -3,22 0,30 3,7 9,11 18,14 3,0 11,1 23,3 32,3 48,19 48,49 0,32 -13,55 -38,67 -5,3 -18,9 -38,18 -6,4 -10,9 -11,15 -1,9 6,18 23,29 3,1 6,2 9,2 9,0 19,-9 31,-29 3,-6 6,-11 8,-13 6,-8 16,-15 30,-20 3,-1 5,-1 9,-1 23,0 40,11 52,33 10,18 15,40 15,65 0,8 0,14 -1,18z"/>
  <path class="fil1" d="M3388 409l-2 1c1,0 2,0 2,-1z"/>
  <path class="fil1" d="M3675 413c-4,-11 -7,-21 -11,-28 -9,-36 -18,-63 -28,-81 0,-2 -4,-7 -12,-16 -7,-9 -15,-18 -22,-27 -10,-12 -18,-20 -24,-25 -27,-27 -48,-42 -64,-46l-7 -2c-3,-1 -6,-2 -9,-3 -20,-11 -44,-18 -74,-21 -11,-2 -37,-2 -78,-2l-10 0c-59,7 -103,37 -133,90 -5,9 -12,19 -23,32l1 0c-12,14 -18,25 -21,35l0 -1c-19,77 -29,137 -29,178l0 3c0,30 8,63 25,100 17,38 38,65 61,81 19,25 48,45 87,60 8,3 22,8 41,14 25,7 51,11 78,11 23,0 43,-3 62,-8 94,-29 154,-74 178,-136 1,-6 2,-12 2,-17 10,-31 15,-66 15,-105 0,-23 -2,-51 -5,-84l0 -2z"/>
  <path class="fil4" d="M3636 388l4 57c0,13 1,21 1,26 0,39 -5,73 -15,103 0,4 -1,10 -2,17 -23,58 -79,100 -170,128 -17,5 -37,7 -58,7 -26,0 -51,-3 -76,-11 -35,-10 -62,-22 -81,-33 -28,-18 -52,-47 -72,-87 -17,-35 -26,-68 -25,-99 1,-46 11,-104 29,-175 1,-7 8,-17 19,-31 13,-17 20,-28 23,-32 28,-51 70,-79 125,-85 5,-1 32,0 79,2 31,1 57,8 78,21 2,1 4,1 7,2l9 2c24,6 50,28 76,67l5 5c3,3 5,5 6,7 10,20 19,47 28,82 3,5 6,14 10,27z"/>
  <path class="fil1" d="M3475 456c2,-8 -1,-21 -7,-38 -6,-15 -11,-25 -15,-30 -13,-16 -30,-24 -51,-24 -11,0 -26,3 -46,7 -17,6 -33,24 -48,53 -3,7 -5,18 -5,31 0,39 14,62 43,72 9,2 23,5 45,7 18,-2 36,-10 54,-26 17,-17 27,-34 30,-52z"/>
  <path class="fil1" d="M4108 340c-1,0 -1,-1 -1,-2l1 2z"/>
  <path class="fil1" d="M3865 553l-16 0 31 -3c-3,1 -8,2 -15,3z"/>
  <path class="fil1" d="M4110 421c0,-1 0,-3 -1,-5l1 1c-1,-4 -2,-8 -3,-12 -4,-29 -9,-51 -13,-68l0 -4c0,-1 -1,-3 -1,-3 -2,-18 -3,-29 -4,-33 -3,-13 -6,-23 -11,-31 -13,-20 -28,-41 -44,-64 -2,-2 -7,-4 -13,-6 -6,-9 -11,-16 -15,-22 -15,-9 -33,-13 -53,-13 -9,0 -17,1 -23,2l0 0c-8,1 -18,6 -28,14 -10,7 -17,15 -21,23 -9,19 -13,48 -13,86 0,-1 0,-1 0,2 0,2 0,5 0,9l0 22c0,37 -10,55 -28,55 -3,0 -5,0 -7,0 -3,-10 -5,-36 -7,-78 -1,-25 -5,-45 -12,-58l0 0c-4,-10 -13,-19 -27,-27 0,0 0,0 0,-1l0 1c-4,-9 -12,-18 -24,-25 -11,-8 -22,-13 -32,-14l-7 0c-44,0 -74,20 -91,60 -1,3 -3,11 -4,22l0 67c0,5 0,10 -1,14l-1 13c0,5 0,13 0,24 0,16 1,27 3,33l-1 0c3,16 11,35 23,54 12,20 25,34 39,44 11,15 24,26 37,32 0,1 1,1 1,1 0,0 1,1 1,1l-5 0c-12,0 -26,8 -43,22 -21,19 -31,39 -31,61 0,32 14,58 43,78 12,17 27,29 46,37l-1 -1c3,2 6,4 11,7 4,2 12,4 24,7 7,2 13,4 18,6 33,7 56,10 68,10 13,0 40,-4 82,-12 19,-4 33,-8 41,-12 54,-30 84,-62 92,-97l-1 1c7,-25 16,-53 25,-81 1,-5 3,-18 5,-40 5,-41 8,-68 8,-79l0 -11c0,-3 -1,-7 -1,-10l-1 -2z"/>
  <path class="fil5" d="M4072 397c1,15 -1,48 -6,96 -2,13 -3,26 -5,40 -2,6 -6,17 -11,33 -2,8 -7,24 -14,47 -9,33 -37,62 -85,89 -7,4 -20,7 -38,11l-42 8c-12,3 -25,4 -38,4 -12,0 -34,-3 -66,-10 -6,-1 -19,-5 -39,-11 -4,-3 -7,-5 -11,-7 -17,-7 -30,-17 -40,-31 -10,-14 -15,-29 -15,-46 0,-19 9,-37 27,-52 15,-13 27,-19 36,-20 12,0 29,3 51,8 22,6 39,9 50,9 0,0 1,0 4,0 2,0 4,0 7,0l30 0c22,-3 34,-11 38,-23 2,-5 0,-11 -4,-18 -5,-7 -9,-11 -15,-13 0,-1 -9,-1 -24,0 -25,3 -49,5 -71,6 -5,1 -12,1 -20,0 -44,-1 -80,-22 -107,-61 -11,-18 -19,-35 -23,-53 -1,-6 -1,-16 -1,-31l0 -50 0 -67c1,-5 2,-12 5,-21 5,-16 14,-27 26,-34 16,-12 34,-17 53,-17 9,0 19,3 30,10 11,7 19,14 23,22 5,11 9,30 10,54l4 61c2,37 18,55 49,55 28,0 41,-25 39,-77 -1,-43 1,-73 6,-91 11,-30 33,-45 68,-45 18,0 34,3 46,10 3,5 9,13 17,25l25 37c5,8 8,20 10,36l3 20c0,2 0,5 1,8 0,3 1,5 1,4 5,19 9,42 12,67 1,4 3,10 4,18z"/>
  <path class="fil1" d="M4452 305l0 -7c0,-8 -4,-25 -10,-50 -16,-27 -28,-41 -35,-41 0,0 -1,0 -1,0 -10,-15 -18,-24 -25,-27 -20,-10 -43,-15 -69,-16 -5,-1 -8,1 -10,4l-3 6 -4 7c-1,2 -4,3 -6,3l-2 -22c-32,5 -56,9 -72,13 -27,6 -50,15 -71,27 -10,10 -16,18 -20,25l2 -2c-23,27 -38,48 -44,63l0 0c-7,19 -12,39 -15,59l0 -1c0,1 0,3 0,5l0 6c0,39 6,66 17,83 7,10 16,19 28,28 20,28 49,46 84,54 4,1 6,2 9,2l15 4 -1 -1c3,1 6,2 9,3 -7,11 -17,17 -29,17 -8,0 -17,-2 -28,-5l2 1c-5,-2 -9,-4 -13,-6l-9 -4c-7,-1 -15,-1 -23,-1 -15,0 -27,3 -36,8 -2,1 -4,2 -8,3 -26,31 -39,61 -39,88l0 7c2,5 5,11 9,18 7,26 21,44 41,55 22,30 51,47 89,52 9,1 20,2 33,2 12,0 22,-1 30,-2 32,-2 58,-9 77,-18 29,-15 51,-28 65,-40 20,-17 34,-37 44,-62l0 0 2 -3c1,-3 3,-8 7,-15 5,-20 7,-38 7,-56 0,-26 -8,-53 -25,-80l0 1c-7,-12 -25,-33 -54,-65 -13,-13 -24,-24 -35,-33 -5,-5 -17,-10 -37,-15 -2,-4 -3,-8 -3,-13 0,-3 2,-5 7,-7 2,-1 4,-1 6,-1 5,0 13,2 24,6 11,4 20,6 25,6 9,0 23,-2 45,-7 11,-2 22,-11 33,-25 9,-12 15,-22 17,-31z"/>
  <path class="fil6" d="M4413 275c-1,8 -6,18 -15,29 -10,11 -18,17 -26,18 -22,5 -36,7 -42,7 -5,0 -14,-2 -25,-6 -11,-4 -19,-6 -25,-6 -6,0 -11,2 -16,5 -5,4 -7,9 -7,15 0,8 4,18 13,29 9,12 17,18 25,21 16,4 27,8 33,13 55,47 83,94 83,142 0,17 -2,34 -7,50 -2,5 -5,11 -8,19 -10,23 -24,43 -42,58 -11,9 -32,22 -62,38 -19,9 -43,15 -73,18 -10,0 -19,1 -28,1 -31,0 -57,-6 -78,-16 -26,-13 -43,-33 -50,-59 -2,-3 -4,-8 -7,-15 -1,-26 10,-54 35,-84 2,-1 4,-1 6,-2 6,-5 16,-7 31,-7 6,0 12,0 20,1 7,4 14,7 20,9 16,4 30,6 44,3 5,0 14,-9 29,-24 0,-21 -15,-36 -47,-43 -6,-1 -17,-4 -32,-8 -21,-5 -39,-17 -56,-34 -6,-5 -11,-10 -13,-14 -5,-7 -9,-20 -12,-39 -3,-21 -4,-37 -3,-46 3,-19 8,-38 15,-56 5,-13 19,-33 41,-60 4,-6 9,-14 17,-21 19,-11 41,-20 67,-26 13,-3 36,-7 71,-12 -6,0 2,1 22,2 26,0 47,6 65,15 7,4 17,15 28,34l6 23c1,5 2,11 3,16 0,4 0,9 0,12z"/>
  <path class="fil7" d="M3391 523l0 0c-20,-2 -34,-5 -41,-7 -1,0 -3,0 -5,-1 -2,-8 -4,-18 -4,-32 0,-12 2,-21 5,-27 13,-26 27,-41 40,-46 13,-3 23,-5 30,-6l2 0c5,0 8,-1 11,-1 7,0 14,1 22,4 1,3 3,8 6,15 5,13 7,23 7,30l0 2c-3,15 -12,31 -27,45 -15,14 -30,22 -46,24z"/>
  <path class="fil8" d="M1339 550c-1,1 -6,4 -14,8l0 -1c-11,4 -21,6 -29,6 -7,0 -13,-1 -18,-3 -3,-7 -5,-15 -5,-25 0,-9 4,-19 10,-28 1,-2 12,-6 32,-11 1,0 2,0 5,0 8,0 16,1 22,4 2,7 4,15 4,23 0,12 -2,21 -7,27l0 0z"/>
  <path class="fil8" d="M1782 550c-1,1 -6,4 -14,8l0 -1c-12,4 -22,6 -30,6 -6,0 -12,-1 -17,-3 -3,-7 -5,-15 -5,-25 0,-9 3,-19 10,-28 1,-2 12,-6 32,-11 0,0 2,0 5,0 8,0 15,1 21,4 3,7 5,15 5,23 0,12 -3,21 -8,27l1 0z"/>
  <path class="fil8" d="M2586 363l-18 16c-4,3 -9,7 -14,11 -1,1 -3,1 -6,1l-3 0 0 -3c0,-3 3,-9 8,-19 2,-5 5,-8 7,-11l6 -7 18 8c0,0 1,0 1,0l0 2c0,1 0,2 1,2z"/>
 </g>
</svg>
