<?xml version="1.0" encoding="UTF-8"?>
<!DOCTYPE svg PUBLIC "-//W3C//DTD SVG 1.1//EN" "http://www.w3.org/Graphics/SVG/1.1/DTD/svg11.dtd">
<!-- Creator: CorelDRAW X7 -->
<svg xmlns="http://www.w3.org/2000/svg" xml:space="preserve" width="69.8834mm" height="13.4021mm" version="1.1" style="shape-rendering:geometricPrecision; text-rendering:geometricPrecision; image-rendering:optimizeQuality; fill-rule:evenodd; clip-rule:evenodd"
viewBox="0 0 4555 874"
 xmlns:xlink="http://www.w3.org/1999/xlink">
 <defs>
  <style type="text/css">
   <![CDATA[
    .fil0 {fill:#FEFEFE}
    .fil7 {fill:#FEFEFE;fill-rule:nonzero}
    .fil8 {fill:#FEFEFE;fill-rule:nonzero}
    .fil1 {fill:#373435;fill-rule:nonzero}
    .fil4 {fill:#92B9DD;fill-rule:nonzero}
    .fil3 {fill:#9BCC7D;fill-rule:nonzero}
    .fil5 {fill:#D4B9E6;fill-rule:nonzero}
    .fil6 {fill:#F8C8DC;fill-rule:nonzero}
    .fil2 {fill:#FECE7C;fill-rule:nonzero}
   ]]>
  </style>
    <clipPath id="id0">
     <path d="M0 0l4555 0 0 874 -4555 0 0 -874z"/>
    </clipPath>
 </defs>
 <g id="Layer_x0020_1">
  <metadata id="CorelCorpID_0Corel-Layer"/>
  <g id="_2204673933648">
   <g style="clip-path:url(#id0)">
    <image x="0" y="0" width="4555" height="874" xlink:href="logo cuddle_Images\logo cuddle_ImgID1.png"/>
   </g>
  </g>
  <path class="fil0" d="M1602 290c-4,-18 -6,-37 -6,-56 0,-96 48,-176 152,-176l5 0c45,0 86,19 123,43 15,11 30,23 43,36 7,-16 19,-29 36,-38 5,-2 10,-4 14,-6 31,-24 68,-36 108,-36 29,0 56,7 82,20 22,11 42,27 56,46 8,7 15,14 22,21 20,23 33,52 41,82 1,-2 2,-5 3,-7 21,-39 49,-71 85,-96 2,-1 5,-3 7,-5 29,-18 62,-29 94,-38 2,0 3,0 4,0l76 -16c17,-5 34,-6 51,-6 15,0 37,5 54,10 2,0 4,0 6,1 40,8 75,26 103,54 7,-9 14,-17 22,-25 29,-27 65,-41 104,-41 7,0 15,0 23,1 42,4 76,27 103,58 13,12 26,25 36,39 12,16 20,34 25,52 0,1 0,2 1,2 1,6 3,11 4,17 3,-5 7,-9 10,-14 1,-1 1,-2 2,-3 5,-6 12,-14 16,-21 41,-74 107,-119 191,-129 4,-1 6,-1 10,-1l10 0c27,0 58,-1 85,2 34,3 66,11 96,27l5 1c22,6 43,18 62,33 32,-34 76,-53 128,-53l7 0c4,0 7,0 11,1 24,3 46,13 66,26 7,5 14,11 21,17 8,-9 17,-17 26,-24 16,-12 34,-21 53,-26 1,0 2,0 3,-1 14,-3 28,-4 42,-4 32,0 64,7 92,24 11,6 19,13 26,24 1,1 2,3 3,4 5,3 10,7 15,11 4,-5 9,-8 15,-12 29,-16 60,-28 92,-35 26,-6 52,-10 78,-14 10,-2 20,-1 30,1 3,0 7,0 11,0 34,1 68,9 99,24 17,8 31,21 42,36 22,15 38,39 51,61 5,7 7,14 9,22 6,21 12,47 12,69l0 7c0,5 -1,10 -2,15 -4,24 -16,45 -30,63 -10,12 -20,23 -32,32 7,8 14,17 20,25 1,2 3,5 5,7 22,37 37,78 37,121 0,25 -4,50 -10,74 -1,7 -3,12 -6,17 -2,4 -3,7 -5,11 -1,1 -1,3 -2,4l-2 3c0,1 0,1 0,1 -14,33 -35,62 -63,85 -24,20 -53,36 -80,50 -32,17 -70,24 -105,27 -13,1 -25,1 -37,1 -14,0 -29,0 -43,-2 -45,-5 -85,-24 -117,-54 -12,8 -24,15 -36,22 -19,11 -42,16 -63,20 -29,6 -67,14 -97,14 -26,0 -58,-7 -84,-12 -5,-1 -9,-3 -14,-4 -2,-1 -5,-2 -7,-2 -10,-3 -20,-5 -30,-9 -8,-2 -15,-6 -21,-11 -22,-10 -40,-23 -56,-40 -41,31 -90,52 -140,67 -27,9 -55,12 -84,12 -34,0 -68,-5 -101,-15 -15,-5 -31,-9 -46,-15 -20,-8 -39,-18 -58,-29 -11,10 -23,20 -36,26 -37,20 -77,32 -119,32l-9 0c-56,0 -111,-11 -162,-36 -8,-4 -15,-8 -21,-15 -2,-2 -4,-4 -6,-5 -2,-2 -4,-3 -6,-5l-2 -2c0,-1 -1,-1 -2,-2 -14,11 -30,19 -47,27 -3,1 -5,2 -7,3 -50,17 -106,33 -159,35 -1,0 -2,0 -3,0 -9,0 -16,-2 -25,-3 -2,0 -5,-1 -7,-2 -1,0 -1,0 -2,0l-26 -2c-1,0 -1,0 -2,0 -17,-2 -34,-4 -51,-8 0,-1 -1,-1 -1,-1l-16 -4c-8,-3 -17,-5 -25,-7 -6,-1 -12,-3 -17,-6 -11,-6 -21,-11 -31,-16 -10,-5 -20,-11 -29,-17 -54,49 -133,65 -210,65 -17,0 -33,0 -50,-1 -62,-5 -124,-22 -166,-68 -1,1 -3,2 -5,3 -71,45 -151,69 -236,69 -12,0 -24,-1 -36,-2 -35,-5 -73,-12 -105,-27 -24,-10 -45,-24 -64,-40 0,0 0,0 0,0 -72,45 -151,69 -236,69 -12,0 -25,-1 -37,-2 -35,-5 -72,-12 -105,-27 -26,-11 -49,-27 -70,-46l-15 12c-47,38 -101,61 -162,61l-4 0c-19,0 -41,-2 -61,-4 -64,-8 -139,-25 -189,-69 -6,-5 -11,-10 -16,-15 -11,11 -24,22 -37,30 -59,42 -128,59 -199,59 -68,0 -135,-15 -190,-56 -2,-1 -3,-2 -5,-4 -6,-4 -11,-10 -16,-16 -1,0 -1,-1 -2,-1l-5 -7c-23,-15 -39,-40 -54,-62 -12,-20 -25,-42 -33,-63 -9,-26 -13,-54 -13,-81l0 -45c0,-19 4,-39 8,-58l4 -18c1,-3 1,-6 2,-8 3,-31 7,-64 15,-93 11,-41 29,-79 57,-112 1,-1 1,-2 2,-4 3,-5 7,-11 10,-16 3,-3 5,-6 8,-9 21,-20 43,-38 67,-54 53,-36 114,-51 177,-51l13 0c25,0 53,8 76,14 5,1 9,3 14,5l13 7c19,7 36,17 51,28 36,-35 82,-54 133,-54 52,0 97,19 129,58 4,3 9,7 13,10 2,-1 4,-2 6,-4 2,-1 4,-2 7,-3 26,-13 55,-20 85,-20 41,0 80,12 115,34 2,1 4,3 6,4 17,11 32,25 45,41 17,13 31,30 42,48 2,-92 51,-168 152,-168l5 0c45,0 86,19 122,43 21,15 40,31 56,50 21,20 40,41 55,65 0,1 1,3 2,4 12,21 24,43 34,65 1,3 2,5 3,7 6,0 12,-1 18,-2z"/>
  <path class="fil1" d="M587 371c9,-13 14,-29 14,-47l0 -3c0,-54 -18,-92 -53,-117 -13,-19 -31,-33 -56,-42l-17 -9c-27,-7 -45,-11 -55,-11l-13 0c-52,0 -96,13 -133,38 -21,14 -39,29 -56,45 -1,2 -3,4 -4,7l0 0c-1,1 -3,6 -8,13 -20,22 -35,50 -44,85 -5,16 -9,43 -14,82 0,3 -1,8 -2,15l-5 21c-4,17 -6,30 -6,39l0 45c0,20 3,38 9,55 4,11 12,27 25,47 14,23 25,36 32,40l0 -1c2,2 5,5 10,7l12 15c2,3 4,5 6,6l-1 0c37,29 86,43 147,43 62,0 115,-16 157,-47l-1 1c17,-10 31,-25 43,-45 12,-20 18,-39 18,-57 0,-10 -2,-23 -6,-37l0 1c0,-1 -1,-4 -2,-11 -6,-17 -20,-34 -40,-51 -4,-5 -9,-11 -16,-18 -16,-14 -30,-21 -44,-21l-4 0c-13,0 -29,1 -47,5 -24,5 -40,8 -48,8l-4 0c-10,0 -17,0 -23,-2 -3,-6 -4,-11 -4,-15 0,-4 1,-8 2,-11 3,-6 9,-13 20,-22 10,-9 18,-14 25,-15l4 0c7,0 16,1 29,4l25 4c3,1 7,2 10,2l2 0c2,1 6,1 12,1l8 0c18,0 41,-7 67,-21 12,-6 21,-15 29,-26l0 0z"/>
  <path class="fil2" d="M526 360c-25,13 -46,20 -63,20 -5,0 -12,-1 -21,-1 -6,-1 -17,-4 -34,-7 -15,-3 -27,-4 -36,-3 -8,0 -19,6 -30,15 -12,10 -19,19 -23,27 -5,11 -5,22 0,32 7,17 15,27 23,32 10,6 25,9 43,8 9,0 26,-3 50,-8 20,-4 36,-6 49,-5 12,0 24,7 37,19 11,11 19,23 24,35 1,4 2,12 5,22 2,10 3,17 3,22 0,18 -5,35 -17,52 -10,16 -23,30 -38,41 -42,29 -92,44 -151,44 -58,0 -105,-13 -140,-41 -8,-6 -18,-18 -30,-36 -12,-19 -19,-33 -23,-44 -5,-18 -8,-35 -8,-53l0 -44c0,-10 2,-22 6,-37 1,-6 4,-19 7,-37 2,-14 7,-41 13,-80 6,-29 20,-55 43,-81 3,-6 7,-13 12,-21 18,-16 35,-30 53,-42 40,-25 87,-37 140,-36 11,1 27,4 49,10l8 4c4,2 7,4 12,6 49,18 73,58 73,120 0,32 -12,54 -36,67z"/>
  <path class="fil1" d="M1095 289c-7,-20 -20,-36 -38,-50 -9,-13 -21,-24 -37,-34l0 0c-23,-14 -47,-21 -73,-21 -20,0 -39,4 -55,14l1 -1c-8,4 -17,16 -30,35 -2,3 -4,6 -6,8 -1,9 -2,18 -2,28 0,7 1,20 2,38 1,8 5,14 13,19l0 4c0,2 0,5 0,9 1,4 1,7 1,9l0 65c-3,28 -10,52 -21,72l0 -1c-9,17 -15,27 -17,29l1 -1c-4,2 -9,3 -15,4l2 0c-2,0 -4,0 -5,0l-3 0c-2,0 -3,0 -4,0 -6,-2 -12,-4 -17,-7 -3,-13 -4,-26 -4,-39l0 -8c0,-8 1,-24 4,-45 1,-12 3,-24 6,-37l-1 1c4,-12 8,-30 14,-54l-1 1c6,-24 9,-45 9,-62 0,-12 -2,-24 -5,-35 0,-1 -1,-6 -2,-15l0 -4c-9,-15 -19,-26 -31,-32 -16,-24 -40,-37 -74,-37 -33,0 -61,13 -83,37 -17,19 -28,39 -33,59l0 -1c-5,18 -8,39 -9,63 0,14 -4,45 -11,92 -7,42 -10,71 -10,88 0,33 4,58 11,76l0 -2c0,4 1,9 2,17 9,19 31,46 65,80 17,17 30,30 40,38 28,25 77,42 146,50 26,3 43,4 52,4l4 0c39,0 77,-14 113,-44l25 -20c6,-5 10,-8 11,-9l-1 1c56,-63 84,-147 84,-252 0,-9 0,-18 -1,-28 -1,-41 -7,-75 -17,-102z"/>
  <path class="fil3" d="M1074 363c0,10 0,19 0,28 0,102 -27,184 -81,245 -2,2 -13,11 -33,27 -33,26 -68,40 -107,42 -7,0 -25,-1 -54,-5 -66,-7 -113,-23 -141,-47 -37,-31 -62,-60 -73,-85l-3 -16c-7,-17 -10,-41 -10,-72 0,-16 3,-45 10,-86 7,-46 10,-77 11,-93 1,-25 4,-45 8,-60 8,-26 21,-47 40,-63 19,-16 41,-25 66,-25 17,0 29,2 38,7 11,4 20,13 28,26l7 52c0,17 -2,36 -7,56l-15 65c-4,22 -7,44 -8,65 -2,30 1,53 7,71 4,10 20,20 48,30 4,2 10,2 17,1 7,-1 13,-3 17,-6 11,-7 21,-24 30,-50 7,-20 11,-39 13,-57l0 -62c0,5 0,-1 -1,-18 0,-10 -1,-15 -1,-17 -7,-2 -11,-6 -11,-11 -3,-24 -4,-44 -2,-60 3,-4 7,-9 11,-16 6,-11 13,-18 20,-22 15,-8 31,-12 49,-12 23,0 46,6 66,19 22,13 37,30 44,51 10,27 15,60 17,98z"/>
  <path class="fil1" d="M1515 614c12,-36 18,-78 18,-127 0,-57 -8,-111 -23,-163 -6,-14 -17,-33 -31,-60l0 1c-9,-16 -24,-34 -45,-53 -13,-16 -28,-29 -44,-40 -29,-20 -55,-30 -78,-30l-5 0c-49,0 -74,33 -74,98 0,18 2,35 7,52l-1 -1c1,4 4,13 9,27l0 -1 2 5c0,0 0,2 1,5 4,10 6,17 6,21 0,2 -1,4 -2,4 -16,10 -24,15 -25,16 -24,3 -60,6 -108,11 -15,3 -30,15 -45,34 -11,14 -19,29 -25,43l-8 27c-1,4 -3,11 -5,21l0 -1c-4,18 -7,33 -7,46l0 6c0,8 2,20 6,37 4,18 8,30 12,35 12,18 25,32 39,42 23,25 46,43 71,54 20,9 48,16 84,20 5,1 14,1 26,1 70,0 135,-18 194,-56l8 -9c7,-9 15,-20 26,-35 6,-8 12,-18 17,-30l0 0z"/>
  <path class="fil4" d="M1476 583c-3,9 -14,27 -34,54 -3,4 -7,9 -12,15 -57,36 -119,54 -188,54 -11,0 -20,-1 -25,-1 -34,-5 -61,-11 -80,-20 -30,-12 -55,-33 -78,-65 -5,-6 -10,-27 -15,-61 -2,-12 0,-29 6,-53 2,-8 5,-22 11,-44 6,-15 14,-29 25,-42 13,-17 26,-27 38,-30 25,-2 60,-5 107,-11 3,-1 13,-6 30,-17 4,-3 7,-7 7,-14 0,-5 -3,-14 -7,-27 -11,-30 -17,-57 -17,-81 0,-61 23,-89 68,-87 25,2 50,12 75,30 24,16 42,36 55,60 3,6 14,25 30,57 15,50 22,104 22,160 0,48 -6,89 -18,123z"/>
  <path class="fil1" d="M1325 536c6,-7 9,-18 9,-33 0,-16 -4,-29 -11,-39 -14,-18 -31,-27 -53,-27 -5,0 -8,0 -11,1 -21,5 -33,10 -36,15 -7,11 -11,22 -11,34 0,15 6,33 17,53 15,9 29,13 43,13 4,0 8,0 12,-1 6,0 13,-2 23,-5 9,-3 15,-7 18,-11z"/>
  <path class="fil1" d="M1956 614c12,-36 18,-78 18,-127 0,-57 -7,-111 -22,-163 -7,-14 -17,-33 -32,-60l1 1c-10,-16 -25,-34 -46,-53 -13,-16 -27,-29 -43,-40 -29,-20 -55,-30 -79,-30l-5 0c-49,0 -73,33 -73,98 0,18 2,35 6,52l0 -1c0,4 3,13 8,27l0 -1 2 5c0,0 1,2 2,5 3,10 5,17 5,21 0,2 0,4 -2,4 -15,10 -24,15 -25,16 -24,3 -60,6 -108,11 -15,3 -30,15 -45,34 -10,14 -19,29 -25,43l-7 27c-1,4 -3,11 -6,21l1 -1c-5,18 -7,33 -7,46l0 6c0,8 2,20 6,37 4,18 8,30 11,35 13,18 26,32 39,42 23,25 47,43 71,54 20,9 48,16 84,20 6,1 14,1 26,1 70,0 135,-18 195,-56l7 -9c7,-9 16,-20 26,-35 7,-8 12,-18 17,-30l0 0z"/>
  <path class="fil5" d="M1918 583c-3,9 -15,27 -35,54 -2,4 -6,9 -11,15 -58,36 -120,54 -188,54 -12,0 -20,-1 -25,-1 -35,-5 -62,-11 -81,-20 -29,-12 -55,-33 -78,-65 -5,-6 -10,-27 -15,-61 -2,-12 0,-29 6,-53 2,-8 6,-22 11,-44 7,-15 15,-29 25,-42 14,-17 27,-27 39,-30 24,-2 60,-5 107,-11 3,-1 13,-6 29,-17 5,-3 7,-7 7,-14 0,-5 -2,-14 -7,-27 -11,-30 -16,-57 -16,-81 0,-61 22,-89 67,-87 26,2 51,12 75,30 24,16 42,36 55,60 4,6 14,25 30,57 15,50 23,104 23,160 0,48 -6,89 -18,123z"/>
  <path class="fil1" d="M1766 536c6,-7 10,-18 10,-33 0,-16 -4,-29 -12,-39 -13,-18 -31,-27 -53,-27 -4,0 -8,0 -11,1 -20,5 -32,10 -35,15 -8,11 -11,22 -11,34 0,15 5,33 17,53 14,9 28,13 43,13 4,0 8,0 12,-1 5,0 13,-2 22,-5 9,-3 15,-7 18,-11z"/>
  <path class="fil1" d="M2359 545c-6,-7 -12,-14 -19,-21l0 1c-9,-9 -18,-19 -27,-28 -12,-12 -22,-19 -30,-22 -16,-7 -31,-12 -44,-15 -13,0 -25,-1 -34,-1l0 0c-4,-19 -5,-33 -5,-42l0 -5c7,-46 10,-80 10,-100 0,-9 0,-16 -2,-23l0 1c-4,-42 -14,-71 -29,-87 -7,-8 -14,-14 -21,-19 -8,-13 -19,-23 -34,-31 -15,-8 -31,-12 -47,-12 -29,0 -52,10 -71,31 -1,-1 -2,-1 -3,-1 -3,0 -7,2 -13,5 -4,18 -7,28 -9,30l-8 111c0,2 0,6 0,10l0 1c-3,21 -8,51 -14,92 -5,33 -7,64 -7,92l0 7c0,35 3,69 10,102 2,7 5,17 9,31 0,3 1,5 2,5l-1 -1c8,13 18,23 29,31 21,32 62,50 122,54 17,1 32,1 45,1 103,0 166,-30 188,-92 8,-20 11,-39 11,-58 0,-13 -2,-27 -6,-43l-2 -4z"/>
  <path class="fil6" d="M2323 524c4,15 6,28 6,41 0,17 -4,35 -11,54 -20,56 -80,85 -178,85 -13,0 -28,-1 -44,-2 -57,-4 -96,-21 -115,-52 0,-2 -3,-13 -8,-32 -7,-31 -11,-66 -10,-106 0,-23 3,-53 8,-90l10 -68c2,-17 4,-42 6,-75l5 -68c1,-2 4,-11 8,-28 1,0 2,0 3,0 2,0 4,0 6,2 17,-22 40,-33 68,-33 26,0 48,10 66,30 13,15 22,42 27,81 1,9 2,16 2,21 0,9 -3,37 -9,82l-2 19c-1,9 1,25 5,48 0,3 0,7 1,14 5,8 9,13 10,15 4,4 9,7 15,8 7,0 14,0 19,0 4,0 12,0 26,1 12,3 26,7 42,14 6,2 15,9 26,20 7,7 13,13 18,19z"/>
  <path class="fil1" d="M2520 363l0 2c0,-1 0,-2 0,-2z"/>
  <path class="fil1" d="M2788 509c-11,-15 -24,-27 -38,-34 -3,-2 -10,-6 -21,-10 12,-8 24,-19 33,-33 12,-16 18,-30 19,-44 1,-10 2,-21 2,-32 0,-31 -5,-60 -13,-86 -11,-32 -28,-55 -49,-69 -18,-26 -45,-42 -79,-50l0 1c-26,-6 -41,-10 -44,-10 -15,0 -27,2 -35,5l1 -1 -77 16c-30,8 -54,17 -73,29l1 0c-27,17 -49,40 -64,70 -12,23 -20,39 -24,47 -9,19 -16,36 -20,49 -11,30 -16,58 -16,85 0,5 0,12 1,22 1,10 1,17 1,22l0 6c18,76 48,130 89,163 16,19 36,35 60,47 6,3 16,8 32,17 4,1 13,3 26,6l17 5c10,3 23,5 39,6l28 2c6,1 9,2 10,2 -2,0 -1,0 5,1 6,1 10,2 11,2 35,-2 81,-12 136,-31 60,-27 89,-66 89,-118 0,-34 -15,-62 -47,-85z"/>
  <path class="fil2" d="M2797 566c0,47 -27,82 -79,107 -57,19 -102,30 -136,31 -1,0 -4,0 -7,-1 -3,-2 -5,-2 -7,-2l-62 -6c-12,-3 -30,-8 -55,-14 -8,-5 -19,-10 -32,-17 -55,-26 -93,-84 -115,-173 0,-8 -1,-21 -2,-38 -2,-28 3,-59 15,-93 6,-19 21,-50 44,-94 25,-49 69,-80 131,-93 13,-3 38,-8 74,-16 12,-2 22,-4 32,-4 4,1 18,4 41,9 38,8 65,29 83,62 15,28 22,63 22,104 0,8 0,18 -1,31 -1,8 -6,20 -14,34 -13,22 -33,38 -59,49 -18,7 -64,16 -140,28 -3,1 -6,4 -9,10 0,2 1,5 2,7 14,7 28,11 44,11 14,0 35,-5 61,-15 27,-9 48,-14 62,-14 21,0 40,5 58,16 32,20 49,47 49,81z"/>
  <path class="fil1" d="M2570 336c-1,-13 -8,-23 -23,-30 -10,-4 -22,-10 -36,-15 -1,1 -4,3 -7,6 -3,3 -5,5 -7,7 -5,6 -10,16 -15,29 -1,3 -2,6 -2,8 0,10 5,20 14,28 8,9 18,13 28,13 4,0 7,-1 11,-2 7,-5 19,-15 36,-30 2,-2 2,-6 1,-14z"/>
  <path class="fil1" d="M3178 611c1,-4 2,-11 2,-20 0,-47 -15,-80 -46,-100 -13,-21 -30,-33 -49,-36 3,-11 4,-22 4,-30 0,-27 -11,-44 -32,-54 -9,-19 -26,-31 -52,-33 -3,0 -5,0 -6,-1 0,-1 1,-3 1,-5 4,-12 6,-32 6,-59 0,-10 -2,-21 -6,-34l0 1c-4,-14 -8,-25 -13,-31 -11,-14 -20,-24 -29,-30 -18,-23 -37,-35 -56,-37 -3,0 -9,-1 -15,-1 -20,0 -36,7 -50,20 -14,13 -24,30 -29,50l0 -2c-1,3 -4,8 -7,15 -3,15 -4,30 -4,45 0,14 2,26 4,36l0 -1c3,14 4,25 4,33 0,6 -1,11 -2,17 -37,3 -63,19 -77,49l0 -1c-3,6 -5,9 -8,12 -1,7 -1,13 -1,20 0,41 12,66 36,76 10,19 25,30 45,31 7,1 11,2 13,2l0 5c-1,1 -1,3 -1,6 -1,7 -1,13 -1,17 0,43 15,77 45,102l4 4c1,1 2,2 4,3 6,8 13,15 19,20l5 5c4,3 8,7 11,10 38,19 81,28 128,28l9 0c26,0 54,-8 83,-23 7,-3 16,-11 28,-23l-1 0c13,-12 21,-26 25,-41 1,-5 3,-12 6,-19 1,-10 2,-18 3,-26z"/>
  <path class="fil3" d="M3140 582c-1,7 -2,15 -4,26 -2,5 -5,16 -10,32 -1,5 -7,13 -17,23 -11,10 -19,17 -25,20 -21,11 -45,18 -70,21 -18,1 -39,0 -63,-4 -31,-5 -56,-12 -75,-22 -6,-5 -11,-10 -15,-14 -27,-22 -41,-54 -41,-93 0,-4 0,-10 1,-18 1,-7 1,-13 1,-17 0,-14 -5,-24 -16,-28 -2,-1 -13,-3 -34,-5 -24,-3 -38,-18 -43,-46 -2,-15 -2,-28 0,-39 2,-2 4,-6 7,-10 14,-28 39,-42 75,-43 3,-8 5,-18 5,-28 0,-8 -1,-19 -4,-34 -2,-15 -4,-26 -4,-34 0,-12 2,-26 4,-42 0,-2 1,-4 2,-6l4 -8c3,-14 10,-26 20,-38 10,-12 22,-19 34,-22 14,-2 28,-1 43,3 9,3 21,13 36,32 4,5 8,14 11,27 4,12 5,22 5,30 0,26 -1,45 -5,57 -3,12 -3,22 0,30 3,7 9,11 18,14 4,0 12,1 24,3 31,3 47,19 47,48 0,33 -13,55 -37,68 -6,3 -19,9 -38,17 -7,4 -10,9 -11,15 -2,9 6,19 23,29 3,2 6,3 9,3 8,0 19,-10 30,-30 4,-6 6,-10 8,-13 6,-8 16,-14 31,-19 2,-1 5,-2 8,-2 23,0 40,11 52,34 10,18 15,39 15,64 0,8 0,14 -1,19z"/>
  <path class="fil1" d="M3359 389l-2 1c1,0 2,-1 2,-1z"/>
  <path class="fil1" d="M3645 392c-3,-11 -7,-20 -11,-27 -9,-36 -18,-63 -27,-81 -1,-2 -5,-7 -12,-16 -8,-9 -15,-18 -22,-27 -10,-12 -18,-20 -25,-25 -26,-26 -47,-42 -63,-46l-7 -2c-3,0 -6,-1 -9,-2 -20,-12 -44,-19 -73,-22 -12,-1 -38,-2 -78,-2l-10 0c-59,8 -103,38 -133,90 -5,9 -12,20 -23,32l1 0c-12,14 -18,25 -21,35l0 -1c-19,77 -29,137 -29,178l0 3c0,30 8,63 25,99 17,38 38,65 61,81 19,25 48,45 87,60 8,3 21,7 40,13 25,8 52,12 78,12 23,0 43,-3 62,-8 94,-29 153,-74 177,-136 2,-5 2,-11 2,-17 10,-31 15,-66 15,-104 0,-24 -1,-51 -4,-84l-1 -3z"/>
  <path class="fil4" d="M3607 368l3 57c1,12 1,21 1,26 0,38 -5,72 -15,102 0,4 0,10 -1,17 -23,58 -80,100 -170,128 -17,5 -36,7 -58,7 -26,0 -51,-3 -75,-11 -35,-10 -63,-22 -81,-33 -29,-18 -53,-47 -72,-86 -17,-36 -26,-69 -25,-99 1,-46 11,-104 29,-175 1,-6 8,-17 19,-31 12,-17 20,-28 23,-32 28,-50 69,-78 124,-85 6,0 32,0 79,2 31,1 57,8 78,22 1,0 4,1 7,1l9 3c24,5 49,27 76,66l5 5c2,3 4,5 5,7 11,20 20,48 28,82 3,5 7,14 11,27z"/>
  <path class="fil1" d="M3446 435c2,-7 -1,-20 -7,-37 -6,-15 -11,-25 -15,-30 -13,-16 -30,-24 -51,-24 -10,0 -25,3 -45,7 -18,6 -34,24 -48,52 -4,8 -6,18 -6,32 0,38 15,62 44,71 8,3 23,5 44,7 19,-1 37,-10 54,-26 17,-16 27,-33 30,-52z"/>
  <path class="fil1" d="M4077 320c-1,0 -1,-1 -1,-2l1 2z"/>
  <path class="fil1" d="M3835 533l-16 0 31 -4c-4,2 -9,3 -15,4z"/>
  <path class="fil1" d="M4080 401c0,-1 -1,-3 -1,-5l0 1c-1,-4 -2,-8 -3,-12 -4,-29 -8,-51 -13,-68l0 -3c0,-2 0,-4 0,-4 -3,-18 -4,-29 -5,-33 -2,-13 -6,-23 -11,-30 -13,-21 -27,-42 -43,-65 -3,-1 -7,-3 -13,-6 -6,-9 -11,-16 -15,-21 -16,-9 -33,-14 -53,-14 -10,0 -18,1 -24,3l1 0c-9,1 -18,6 -28,13 -11,8 -18,15 -21,23 -9,19 -14,48 -14,87 0,-2 0,-2 0,1 0,2 0,5 0,9l0 22c0,37 -9,55 -27,55 -3,0 -6,0 -7,0 -3,-11 -5,-36 -7,-77 -1,-26 -5,-46 -12,-59l0 1c-4,-10 -13,-19 -27,-27 0,0 0,-1 0,-2l0 1c-4,-9 -12,-17 -23,-25 -12,-8 -23,-12 -33,-14l-7 0c-43,0 -73,20 -90,60 -1,4 -3,11 -4,22l0 67c0,5 -1,10 -1,14l-1 13c0,5 -1,13 -1,24 0,16 1,27 3,33l0 0c3,16 10,34 22,54 13,19 26,34 39,43 12,16 24,27 37,33 1,0 1,1 1,1 0,0 1,0 2,1l-6 0c-12,0 -26,7 -42,22 -21,18 -32,38 -32,60 0,32 15,58 44,78 11,17 27,29 45,37l-1 -1c3,2 6,4 11,7 4,2 12,4 24,7 8,2 13,4 18,5 33,7 56,11 68,11 12,0 40,-4 82,-12 19,-4 33,-8 41,-12 53,-30 83,-62 91,-96l-1 1c8,-26 16,-53 26,-82 0,-4 2,-18 5,-39 4,-41 7,-68 7,-80l0 -10c0,-3 0,-7 -1,-10l0 -2z"/>
  <path class="fil5" d="M4042 376c0,16 -2,48 -7,97 -2,12 -3,25 -5,39 -2,6 -5,17 -10,33 -3,8 -8,24 -15,48 -9,32 -37,62 -85,88 -6,4 -19,7 -37,11l-42 8c-13,3 -25,4 -38,4 -12,0 -34,-3 -66,-10 -6,-1 -19,-5 -39,-11 -4,-3 -7,-5 -11,-7 -16,-7 -30,-17 -40,-31 -10,-13 -15,-29 -15,-46 0,-19 9,-36 28,-52 14,-13 26,-19 36,-19 11,-1 28,2 50,8 22,6 39,9 50,8 0,0 1,0 4,0 2,0 4,0 7,0l30 0c22,-3 34,-10 38,-22 1,-5 0,-11 -4,-18 -5,-7 -10,-12 -15,-14 0,0 -9,0 -24,0 -25,3 -49,6 -71,7 -5,0 -12,0 -20,0 -44,-2 -79,-22 -106,-62 -12,-17 -20,-34 -23,-53 -1,-5 -2,-15 -1,-30l0 -50 0 -67c0,-5 2,-12 4,-21 6,-15 15,-27 26,-34 17,-11 35,-17 53,-17 9,0 19,4 30,10 11,7 19,14 23,22 5,12 9,30 10,54l4 61c2,37 18,55 49,55 28,0 41,-25 39,-77 -1,-43 1,-73 6,-90 10,-31 33,-46 68,-46 18,0 33,4 46,11 3,4 8,13 17,25l24 37c5,7 9,19 11,35l2 20c0,2 1,5 1,8 1,3 1,5 1,4 5,19 9,42 12,67 2,4 3,10 5,17z"/>
  <path class="fil1" d="M4420 285l0 -7c0,-8 -3,-25 -10,-50 -16,-27 -27,-40 -34,-40 -1,0 -1,-1 -2,-1 -9,-14 -17,-23 -24,-26 -21,-10 -44,-16 -69,-17 -5,0 -8,1 -10,5l-4 5 -3 8c-2,2 -4,3 -7,3l-1 -23c-32,5 -56,9 -72,13 -27,6 -50,15 -71,27 -10,10 -16,18 -20,25l2 -2c-23,28 -37,49 -43,63l0 0c-8,20 -13,39 -15,59l0 -1c-1,1 -1,3 -1,5l0 6c0,39 6,66 17,82 7,10 16,20 28,29 20,28 49,46 84,54 4,0 6,1 9,2l14 3 0 0c3,1 5,2 9,2 -8,11 -17,17 -29,17 -8,0 -17,-2 -28,-4l2 0c-5,-2 -9,-4 -13,-5l-9 -5c-7,-1 -15,-1 -23,-1 -15,0 -27,3 -36,9 -1,1 -4,1 -8,2 -25,31 -38,61 -38,88l0 8c1,4 4,10 8,17 7,26 21,44 41,55 22,30 51,47 89,52 9,1 20,1 33,1 11,0 21,0 30,-1 32,-3 58,-9 77,-18 29,-15 50,-28 64,-40 20,-17 35,-37 44,-62l0 1 2 -4c1,-2 4,-7 7,-15 5,-20 7,-38 7,-55 0,-27 -8,-53 -25,-80l0 0c-7,-11 -25,-32 -54,-64 -12,-14 -24,-25 -34,-33 -5,-5 -17,-10 -37,-15 -2,-4 -3,-8 -3,-13 0,-3 2,-5 6,-7 2,-1 5,-1 7,-1 5,0 13,2 24,6 11,4 19,6 25,6 8,0 23,-2 45,-7 10,-2 21,-11 33,-25 9,-12 14,-22 16,-31z"/>
  <path class="fil6" d="M4381 256c-1,7 -6,17 -15,28 -9,11 -18,17 -25,18 -23,5 -37,7 -43,7 -5,0 -13,-2 -24,-6 -11,-4 -19,-6 -25,-6 -6,0 -12,2 -16,5 -5,4 -8,9 -8,15 0,8 5,18 14,29 9,12 17,18 25,20 16,5 27,9 33,14 54,47 82,94 82,141 0,18 -2,35 -6,51 -3,4 -6,10 -9,18 -10,24 -24,43 -41,58 -11,9 -32,22 -63,38 -18,9 -42,15 -73,18 -9,0 -18,1 -27,1 -31,0 -57,-6 -78,-16 -26,-13 -43,-33 -50,-59 -2,-3 -4,-8 -6,-15 -2,-26 9,-54 34,-84 2,0 4,-1 6,-1 6,-5 16,-8 31,-8 6,0 12,0 20,1 7,4 14,7 20,9 16,5 30,6 44,4 5,-1 14,-9 29,-25 0,-21 -16,-35 -47,-42 -6,-2 -17,-4 -32,-8 -21,-6 -39,-17 -56,-34 -6,-6 -10,-10 -13,-14 -5,-8 -9,-20 -11,-39 -3,-21 -4,-37 -3,-46 2,-19 7,-37 14,-56 5,-13 19,-33 41,-59 4,-7 9,-14 17,-22 19,-11 41,-20 67,-25 12,-3 36,-7 70,-13 -5,1 2,1 23,2 25,1 47,6 65,16 7,3 16,15 28,34l5 22c2,6 3,11 3,16 0,5 0,9 0,13z"/>
  <path class="fil7" d="M3362 502l0 0c-20,-2 -34,-4 -41,-6 -1,0 -3,-1 -5,-1 -2,-8 -3,-19 -3,-33 0,-12 1,-20 4,-26 13,-26 27,-41 40,-46 13,-3 23,-5 30,-6l3 0c4,-1 8,-1 11,-1 6,0 13,1 21,4 1,2 3,7 6,15 5,13 7,23 7,30l0 1c-3,16 -12,31 -27,46 -15,14 -30,22 -46,23z"/>
  <path class="fil8" d="M1316 529c-1,2 -5,4 -14,8l1 -1c-12,4 -22,6 -30,6 -6,0 -12,-1 -18,-2 -3,-7 -4,-16 -4,-25 0,-10 3,-19 9,-28 2,-2 12,-6 32,-11 1,-1 3,-1 5,-1 9,0 16,2 22,5 3,7 4,14 4,23 0,11 -2,20 -7,27l0 -1z"/>
  <path class="fil8" d="M1758 529c-1,2 -6,4 -15,8l1 -1c-12,4 -22,6 -30,6 -6,0 -12,-1 -17,-2 -3,-7 -5,-16 -5,-25 0,-10 3,-19 10,-28 1,-2 12,-6 32,-11 0,-1 2,-1 5,-1 8,0 15,2 21,5 3,7 4,14 4,23 0,11 -2,20 -7,27l1 -1z"/>
  <path class="fil8" d="M2559 343l-18 16c-3,3 -8,7 -14,11 -1,1 -3,1 -5,1l-3 0 0 -3c0,-3 3,-9 8,-19 2,-5 4,-8 6,-11l7 -7 17 8c1,0 1,0 2,0l0 2c0,1 0,2 0,2z"/>
 </g>
</svg>
